<svg xmlns="http://www.w3.org/2000/svg" width="299.46" height="299.46" viewBox="0 0 299.46 299.46">
  <defs>
    <style>
      .a {
        fill: #d3e700;
      }

      .b {
        fill: none;
      }
    </style>
  </defs>
  <title>Ресурс 7</title>
  <g>
    <path class="a" d="M149.73,232.6a82.73,82.73,0,1,1,82.87-82.87h-24a58.86,58.86,0,1,0-37.93,55l8.53,22.43A82.58,82.58,0,0,1,149.73,232.6Z"/>
    <path class="b" d="M149.73,299.46C67.17,299.46,0,232.29,0,149.73S67.17,0,149.73,0,299.46,67.17,299.46,149.73,232.29,299.46,149.73,299.46Zm0-283.46C76,16,16,76,16,149.73S76,283.46,149.73,283.46s133.73-60,133.73-133.73S223.47,16,149.73,16Z"/>
  </g>
</svg>
