<svg xmlns="http://www.w3.org/2000/svg" width="299.46" height="299.46" viewBox="0 0 299.46 299.46">
  <defs>
    <style>
      .a {
        fill: #d3e700;
      }

      .b {
        fill: none;
      }
    </style>
  </defs>
  <title>Ресурс 8</title>
  <g>
    <path class="a" d="M266,149.73H246A96.3,96.3,0,0,0,67.38,99.81L50.28,89.45a117,117,0,0,1,99.45-56A116.81,116.81,0,0,1,266,149.73Z"/>
    <path class="b" d="M149.73,299.46C67.17,299.46,0,232.29,0,149.73S67.17,0,149.73,0,299.46,67.17,299.46,149.73,232.29,299.46,149.73,299.46Zm0-283.46C76,16,16,76,16,149.73S76,283.46,149.73,283.46s133.73-60,133.73-133.73S223.47,16,149.73,16Z"/>
  </g>
</svg>
