<svg xmlns="http://www.w3.org/2000/svg" width="299.46" height="299.46" viewBox="0 0 299.46 299.46">
  <defs>
    <style>
      .a {
        fill: #d3e700;
      }

      .b {
        fill: none;
      }
    </style>
  </defs>
  <title>Ресурс 14</title>
  <g>
    <g>
      <path class="a" d="M291.23,149.73h0a8,8,0,0,1-8-7.55C279.33,71.94,220.94,16,149.73,16c-60.25,0-113.35,41.06-129,98.65a8,8,0,0,1-9.37,5.74h0a8,8,0,0,1-6.07-9.92C22.8,46,82.26,0,149.73,0a150.48,150.48,0,0,1,149.5,141.29A8,8,0,0,1,291.23,149.73Z"/>
      <path class="b" d="M149.73,299.46C67.17,299.46,0,232.29,0,149.73S67.17,0,149.73,0,299.46,67.17,299.46,149.73,232.29,299.46,149.73,299.46Zm0-283.46C76,16,16,76,16,149.73S76,283.46,149.73,283.46s133.73-60,133.73-133.73S223.47,16,149.73,16Z"/>
    </g>
    <circle class="a" cx="8.89" cy="133.82" r="7.99" transform="translate(-125.09 127.78) rotate(-83.62)"/>
    <circle class="a" cx="8.24" cy="158.2" r="7.99" transform="translate(-9.62 0.8) rotate(-3.49)"/>
    <circle class="a" cx="11.79" cy="182.34" r="7.99" transform="translate(-41.82 7.66) rotate(-13.36)"/>
    <circle class="a" cx="19.43" cy="205.51" r="7.99" transform="translate(-79.5 24.33) rotate(-23.24)"/>
  </g>
</svg>
