<svg xmlns="http://www.w3.org/2000/svg" width="299.46" height="299.46" viewBox="0 0 299.46 299.46">
  <defs>
    <style>
      .a {
        fill: #d3e700;
      }

      .b {
        fill: none;
      }
    </style>
  </defs>
  <title>Ресурс 7</title>
  <g>
    <path class="a" d="M149.73,232.6a82.7,82.7,0,1,1,81.7-96.72,12,12,0,0,1-11.86,13.85h0a12,12,0,0,1-11.81-9.9A58.85,58.85,0,1,0,161,207.52a12,12,0,0,1,13.6,7.49h0a12,12,0,0,1-8.87,16A82.76,82.76,0,0,1,149.73,232.6Z"/>
    <path class="b" d="M149.73,299.46C67.17,299.46,0,232.29,0,149.73S67.17,0,149.73,0,299.46,67.17,299.46,149.73,232.29,299.46,149.73,299.46Zm0-283.46C76,16,16,76,16,149.73S76,283.46,149.73,283.46s133.73-60,133.73-133.73S223.47,16,149.73,16Z"/>
  </g>
</svg>
