<svg xmlns="http://www.w3.org/2000/svg" width="427.87" height="427.87" viewBox="0 0 427.87 427.87">
  <defs>
    <style>
      .a {
        opacity: 0.05;
      }

      .b {
        opacity: 0.15;
      }

      .c {
        opacity: 0.3;
      }

      .d {
        opacity: 0.45;
      }

      .e {
        opacity: 0.6;
      }

      .f {
        opacity: 0.75;
      }

      .g {
        opacity: 0.9;
      }
    </style>
  </defs>
  <title>Ресурс 17</title>
  <g>
    <path d="M219.08,366.12h0a6.67,6.67,0,0,0-9.43,0h0a42.28,42.28,0,0,0,0,59.79,6.67,6.67,0,0,0,9.43,0A42.28,42.28,0,0,0,219.08,366.12Z"/>
    <path class="a" d="M110,325.19h0a6.67,6.67,0,0,0-6.67-6.67h0A42.28,42.28,0,0,0,61,360.8a6.67,6.67,0,0,0,6.67,6.67A42.28,42.28,0,0,0,110,325.19Z"/>
    <path class="b" d="M61.75,219.08h0a6.67,6.67,0,0,0,0-9.43h0a42.28,42.28,0,0,0-59.79,0,6.67,6.67,0,0,0,0,9.43A42.28,42.28,0,0,0,61.75,219.08Z"/>
    <path class="c" d="M102.68,110h0a6.67,6.67,0,0,0,6.67-6.67h0A42.28,42.28,0,0,0,67.07,61a6.67,6.67,0,0,0-6.67,6.67A42.28,42.28,0,0,0,102.68,110Z"/>
    <path class="d" d="M208.79,61.75h0a6.67,6.67,0,0,0,9.43,0h0a42.28,42.28,0,0,0,0-59.79,6.67,6.67,0,0,0-9.43,0A42.28,42.28,0,0,0,208.79,61.75Z"/>
    <path class="e" d="M317.91,102.68h0a6.67,6.67,0,0,0,6.67,6.67h0a42.28,42.28,0,0,0,42.28-42.28,6.67,6.67,0,0,0-6.67-6.67A42.28,42.28,0,0,0,317.91,102.68Z"/>
    <path class="f" d="M366.12,208.79h0a6.67,6.67,0,0,0,0,9.43h0a42.28,42.28,0,0,0,59.79,0,6.67,6.67,0,0,0,0-9.43A42.28,42.28,0,0,0,366.12,208.79Z"/>
    <path class="g" d="M325.19,317.91h0a6.67,6.67,0,0,0-6.67,6.67h0a42.28,42.28,0,0,0,42.28,42.28,6.67,6.67,0,0,0,6.67-6.67A42.28,42.28,0,0,0,325.19,317.91Z"/>
  </g>
</svg>
