<svg xmlns="http://www.w3.org/2000/svg" width="299.46" height="299.46" viewBox="0 0 299.46 299.46">
  <defs>
    <style>
      .a {
        fill: #d3e700;
      }

      .b {
        fill: none;
      }
    </style>
  </defs>
  <title>Ресурс 15</title>
  <g>
    <g>
      <path class="a" d="M255.56,149.73h0a10,10,0,0,1-10-9.11A96.3,96.3,0,0,0,72.46,92.28a10,10,0,0,1-13.22,2.61h0a10,10,0,0,1-2.82-14.56,117.06,117.06,0,0,1,93.31-46.89A116.91,116.91,0,0,1,265.53,138.87,10,10,0,0,1,255.56,149.73Z"/>
      <path class="b" d="M149.73,299.46C67.17,299.46,0,232.29,0,149.73S67.17,0,149.73,0,299.46,67.17,299.46,149.73,232.29,299.46,149.73,299.46Zm0-283.46C76,16,16,76,16,149.73S76,283.46,149.73,283.46s133.73-60,133.73-133.73S223.47,16,149.73,16Z"/>
    </g>
    <circle class="a" cx="254.47" cy="167.89" r="10" transform="translate(45.57 389.93) rotate(-80.16)"/>
  </g>
</svg>
