<svg xmlns="http://www.w3.org/2000/svg" width="140.88" height="141.25" viewBox="0 0 140.88 141.25">
  <defs>
    <style>
      .a {
        fill: #ffa748;
      }
    </style>
  </defs>
  <title>Ресурс 16</title>
  <g>
    <path class="a" d="M135.87,70.63h0a5,5,0,0,1-5-4.58A60.63,60.63,0,0,0,44.19,16a5,5,0,0,1-6.46-2h0a5,5,0,0,1,2.15-7,70.63,70.63,0,0,1,101,58.3A5,5,0,0,1,135.87,70.63Z"/>
    <path class="a" d="M70.44,141.25A70.72,70.72,0,0,1,0,76a5,5,0,0,1,5-5.36H5a5,5,0,0,1,5,4.58,60.63,60.63,0,0,0,86.7,50.07,5,5,0,0,1,6.46,2h0a5,5,0,0,1-2.15,7A70.74,70.74,0,0,1,70.44,141.25Z"/>
  </g>
</svg>
